<?xml version="1.0" encoding="utf-8"?>
<!-- Generator: Adobe Illustrator 22.1.0, SVG Export Plug-In . SVG Version: 6.00 Build 0)  -->
<svg version="1.1" id="Layer_1" xmlns="http://www.w3.org/2000/svg" xmlns:xlink="http://www.w3.org/1999/xlink" x="0px" y="0px"
	 viewBox="0 0 36 36" style="enable-background:new 0 0 36 36;" xml:space="preserve">
<style type="text/css">
	.st0{fill:#636C7A;}
</style>
<g>
	<path class="st0" d="M15.1,12.8c-0.3,1.8-1.1,4.7-1.7,7H17C16.5,18.2,15.5,14.6,15.1,12.8L15.1,12.8z"/>
	<path class="st0" d="M26,0H10C4.5,0,0,4.5,0,10v16c0,5.5,4.5,10,10,10h16c5.5,0,10-4.5,10-10V10C36,4.5,31.5,0,26,0z M21.5,27H19
		c-0.1,0-0.2,0-0.2-0.1l-1.2-4.5h-4.8l-1.2,4.5c0,0.1-0.1,0.2-0.2,0.2H9.2C9,27,9,26.9,9,26.7l4.3-14.9c0.1-0.4,0.2-0.8,0.1-1.3
		c0-0.1,0-0.2,0.1-0.2h3.1c0.1,0,0.1,0,0.2,0.2l4.8,16.2C21.7,26.9,21.6,27,21.5,27z M26.6,26.8c0,0.1,0,0.2-0.2,0.2h-2.3
		c-0.1,0-0.2-0.1-0.2-0.2V14.9l0,0c0-0.1,0-0.2,0.2-0.2h2.4c0.1,0,0.2,0,0.2,0.2V26.8z M26.8,11.5c0.1,0.8-0.5,1.5-1.3,1.5
		c-0.1,0-0.2,0-0.2,0c-0.8,0.1-1.5-0.5-1.5-1.3c0-0.1,0-0.2,0-0.2h0c0-0.8,0.6-1.6,1.5-1.6C26,9.9,26.7,10.6,26.8,11.5
		C26.8,11.5,26.8,11.5,26.8,11.5z"/>
</g>
</svg>
