<svg xmlns="http://www.w3.org/2000/svg" viewBox="0 0 788 176"><defs><style>.cls-1{fill:#393e46;}</style></defs><title>logo-nav</title><g id="Layer_1" data-name="Layer 1"><path id="_Path_" data-name="&lt;Path&gt;" class="cls-1" d="M60.7,167.48c-2.83,6.86-13.7,8-20.51,7.81-6.64-.12-14.78-2.82-19.27-7.42a10,10,0,0,1-3.07-6.3c4.93,4.83,13.32,3.54,18.1-.58,2.16-1.86,3.9-4.05,5.92-6a16.57,16.57,0,0,1,7.26-4.53,11.44,11.44,0,0,1,11.57,3.73,11.43,11.43,0,0,1,11.56-3.73A16.66,16.66,0,0,1,79.53,155c2,2,3.76,4.17,5.91,6,4.79,4.12,13.18,5.41,18.1.58a10.08,10.08,0,0,1-3.06,6.3c-4.5,4.6-12.63,7.3-19.28,7.42C74.39,175.43,63.53,174.34,60.7,167.48Z"/><g id="_Group_" data-name="&lt;Group&gt;"><path id="_Compound_Path_" data-name="&lt;Compound Path&gt;" class="cls-1" d="M118.16,107.15c-.08-.4-2.79-1.23-3.22-1.4-1.08-.42-2.18-.81-3.29-1.16-1.46-.46-2.93-.86-4.43-1.19a71.86,71.86,0,0,0-15.42-1.55c-4.14,0-16.3.79-21.58,3.57h0c-3.93,1.83-6.84,2.6-9.52,2.6s-5.6-.77-9.53-2.6h0c-5.28-2.78-17.44-3.58-21.57-3.57a72,72,0,0,0-15.43,1.55c-1.49.33-3,.73-4.42,1.19-1.11.35-2.21.74-3.3,1.16-.42.17-3.14,1-3.21,1.4a19.05,19.05,0,0,0-.13,3.58,7.21,7.21,0,0,1,2.09.5,4,4,0,0,1,1.51,1.38c1,1.47.76,3.4,1,5.07.25,1.85.28,3.72.69,5.57A23.4,23.4,0,0,0,12.92,133c2.14,2.59,6,3.58,9.15,4.41a32.06,32.06,0,0,0,12.35.4c4.2-.53,8.49-1.52,11.87-4.07,3-2.23,5-5.49,6.65-8.84a31.33,31.33,0,0,0,1.56-3.81h0c.1-.3.19-.61.28-.91a10.37,10.37,0,0,1,2-3.49,5.25,5.25,0,0,1,7.83,0,10.32,10.32,0,0,1,2,3.5c.09.3.19.59.29.89h0a31.37,31.37,0,0,0,1.57,3.81c1.63,3.35,3.67,6.61,6.64,8.84,3.39,2.55,7.68,3.54,11.87,4.07a32,32,0,0,0,12.35-.4c3.11-.83,7-1.82,9.15-4.41a23.55,23.55,0,0,0,4.54-9.75c.41-1.85.44-3.72.69-5.57.22-1.67,0-3.6,1-5.07a4.08,4.08,0,0,1,1.51-1.38,7.27,7.27,0,0,1,2.1-.5A19.94,19.94,0,0,0,118.16,107.15Zm-111.63,2c-1,0-1.78-.23-1.78-.53s.8-.52,1.78-.52,1.78.23,1.78.52S7.51,109.12,6.53,109.12Zm44.17,8.27c-1.07,6.56-4.28,13.78-11.26,15.67-3.78,1-14.2,1.81-20.61-.95s-6.84-14-7-17.8,2.77-8.89,18.84-8.89a45.92,45.92,0,0,1,9.07.77,20.09,20.09,0,0,1,8.34,3.2,8.54,8.54,0,0,1,2,1.92,5.37,5.37,0,0,1,.87,2.27A12.51,12.51,0,0,1,50.7,117.39Zm58.88-3.08c-.17,3.83-.61,15-7,17.8s-16.83,2-20.6.95c-7-1.89-10.2-9.11-11.26-15.67a11.91,11.91,0,0,1-.19-3.81,5.24,5.24,0,0,1,.87-2.27,8.68,8.68,0,0,1,2-1.92,20.15,20.15,0,0,1,8.34-3.2,46,46,0,0,1,9.08-.77C106.82,105.42,109.76,110.48,109.58,114.31Zm5.29-5.19c-1,0-1.78-.23-1.78-.53s.79-.52,1.78-.52,1.77.23,1.77.52S115.85,109.12,114.87,109.12Z"/></g><g id="_Group_2" data-name="&lt;Group&gt;"><path id="_Path_2" data-name="&lt;Path&gt;" class="cls-1" d="M23.16,57.78H98.23v.08a436.69,436.69,0,0,1,4-45.18,7.05,7.05,0,0,0-4.12-7.44C86.24,0,35.15,0,23.25,5.24a7.06,7.06,0,0,0-4.13,7.44,433.32,433.32,0,0,1,4,45.16v-.06Z"/><path id="_Path_3" data-name="&lt;Path&gt;" class="cls-1" d="M115,56.87c-2.59.78-3.06,4.24-4.65,6.07-3.09,3.58-7.6,5.29-12.32,6.25-3.46.71-7,1-10.23,1.37a232.69,232.69,0,0,1-25.42,1.13H59.06a232.62,232.62,0,0,1-25.41-1.13c-3.2-.35-6.77-.66-10.24-1.37-4.71-1-9.23-2.67-12.32-6.25C9.51,61.11,9,57.65,6.44,56.87c-3.9-1.18-5.09,4.13-5,6.58.23,5,4.42,9.66,8.28,12.46,4.92,3.58,11,5.58,16.82,7,10.64,2.63,21.75,3.28,32.67,3.28h2.93c10.93,0,22-.65,32.67-3.28,5.85-1.45,11.91-3.45,16.83-7,3.85-2.8,8-7.44,8.27-12.46C120,61,118.85,55.69,115,56.87Z"/></g></g><g id="Layer_2" data-name="Layer 2"><path class="cls-1" d="M240.65,44.77a9.39,9.39,0,0,0-7.13,2.93,20.67,20.67,0,0,0-4.42,7.87,67.39,67.39,0,0,0-2.63,11.55q-1,6.6-1.87,13.95a30.2,30.2,0,0,0,8.25-1.65,13.82,13.82,0,0,0,6.3-4.65c1.1-1.4,2-1.8,2.77-1.2s.53,1.65-.67,3.15a21.7,21.7,0,0,1-8,6.68A25.89,25.89,0,0,1,224,85.72q-1.22,10.35-3,20.78a72.07,72.07,0,0,1-5.85,18.9,37.64,37.64,0,0,1-11,13.8q-6.9,5.33-18.3,5.32A28.63,28.63,0,0,1,175,142.65a20.84,20.84,0,0,1-7.5-5,20.57,20.57,0,0,1-4.35-7.12,24.07,24.07,0,0,1-1.42-8.18,27,27,0,0,1,1.5-8.85,25.36,25.36,0,0,1,4.35-7.87,21.15,21.15,0,0,1,7-5.63,20.06,20.06,0,0,1,9.23-2.1,19.69,19.69,0,0,1,7.65,1.5,19.22,19.22,0,0,1,6.07,3.9A13.23,13.23,0,0,1,201,108.6a8.1,8.1,0,0,1-.07,5.62,3.84,3.84,0,0,1-3.53,2.48,16.33,16.33,0,0,1-5.17-.38,13.53,13.53,0,0,1-4.2-1.65q-1.67-1-.6-1.5a4.28,4.28,0,0,0,2.1-2.1,5.59,5.59,0,0,0,.67-3.45,4.78,4.78,0,0,0-1.87-3.15c-1.11-.9-3-1.35-5.7-1.35a13.37,13.37,0,0,0-6.68,1.65,15.87,15.87,0,0,0-4.95,4.35,19.5,19.5,0,0,0-3.07,6.15,23.26,23.26,0,0,0-1.05,6.9,19.77,19.77,0,0,0,1,6.15,15.66,15.66,0,0,0,2.93,5.33,14.24,14.24,0,0,0,4.95,3.75,16.63,16.63,0,0,0,7.2,1.42q8.83,0,13.65-4.8a30.49,30.49,0,0,0,7.27-12.52,85.07,85.07,0,0,0,3.45-17.4q1-9.67,2-19.58-5.27-1-10.35-2.1a47.15,47.15,0,0,0-9.45-1,20.44,20.44,0,0,0-7.95,1.5,13.34,13.34,0,0,0-6.15,5.7c-.4.6-.81.83-1.2.68a.82.82,0,0,1-.6-.83q0-6.45,3.67-8.7c2.45-1.5,5.67-2.25,9.68-2.25a66.61,66.61,0,0,1,10.72,1q5.93,1,12.08,1.72A145.81,145.81,0,0,1,212.52,65a44.18,44.18,0,0,1,5.1-12.75,25,25,0,0,1,8.93-8.77c3.69-2.15,8.4-3.23,14.1-3.23a3,3,0,0,1,2.17.68,2.15,2.15,0,0,1,.68,1.57,2.17,2.17,0,0,1-.68,1.58A3,3,0,0,1,240.65,44.77Zm-66.15,12c.19.6.17,1-.08,1.28a1.63,1.63,0,0,1-1,.45,2.4,2.4,0,0,1-1.28-.23,1.83,1.83,0,0,1-1-1.05,32.4,32.4,0,0,1-2.63-15.6,21.79,21.79,0,0,1,7-13.95,30,30,0,0,1,12.75-6.82,50,50,0,0,1,17.4-1.43,99.7,99.7,0,0,1,18.15,3q9.28,2.4,18.3,5.25,9.45,3,18,5.33a73,73,0,0,0,16.35,2.62,64.81,64.81,0,0,0,8.32-.22A27.18,27.18,0,0,0,292,33.82a14,14,0,0,0,5.32-3.52,11.41,11.41,0,0,0,2.78-6.23,1.44,1.44,0,0,1,1.5-1.12c.69.05,1.14.62,1.35,1.72a14.13,14.13,0,0,1-1,8.85,17.39,17.39,0,0,1-5.62,6.6,25.88,25.88,0,0,1-8.63,4,34.47,34.47,0,0,1-9.82,1.12,72.84,72.84,0,0,1-16.65-2.7q-8.7-2.4-18.15-5.25-9-2.85-18.15-5.17a100.64,100.64,0,0,0-17.7-2.93,50.16,50.16,0,0,0-15.23,1,29.93,29.93,0,0,0-11.62,5.25A18.17,18.17,0,0,0,174,44.55Q172.25,50,174.5,56.77Z"/><path class="cls-1" d="M286.54,144.82a6.83,6.83,0,0,1-4.73-1.35,10.56,10.56,0,0,1-3.1-4.12,25.29,25.29,0,0,1-1.78-6.23,62,62,0,0,1-.74-7.65q-1.05,2.85-2.62,6.23a33.63,33.63,0,0,1-3.83,6.3,20.09,20.09,0,0,1-5.4,4.87,13.4,13.4,0,0,1-7.2,1.95,12.23,12.23,0,0,1-10.72-5.62q-3.82-5.62-3.83-15.08a47.54,47.54,0,0,1,1.8-12.67,44.89,44.89,0,0,1,5.17-11.93,30.39,30.39,0,0,1,8.23-8.85A18.84,18.84,0,0,1,269,87.22a15.83,15.83,0,0,1,6.07,1.2,15.14,15.14,0,0,1,5.61,4.35q1.49-3.9,2.52-4.65a3.63,3.63,0,0,1,1.85-.75,17.05,17.05,0,0,1,2.29-.15,21,21,0,0,1,3.45.3,17.87,17.87,0,0,1,3.23.83,9.76,9.76,0,0,1,2.17,1.05c.5.35.6.67.3,1a18.48,18.48,0,0,0-2,4.13q-1.12,2.93-2.25,7t-2.1,8.7q-1,4.65-1.58,9a72.11,72.11,0,0,0-1,7.28c-.15,2-.23,3.77-.23,5.17a13.54,13.54,0,0,0,.68,5.18c.45.95,1,1.42,1.72,1.42q2.1,0,5.1-4.95,2.1-3.3,4.73-8.17t5.17-10.58a2.26,2.26,0,0,1,.9-1.12,2.08,2.08,0,0,1,1.05-.38,1.25,1.25,0,0,1,1.13.6,1.48,1.48,0,0,1-.08,1.5q-2.4,4.8-4.95,10.2a97.28,97.28,0,0,1-5.25,9.75,35.54,35.54,0,0,1-5.77,7.58A8.4,8.4,0,0,1,286.54,144.82Zm-9.9-31.65q.45-4.5,1.2-8.77t1.65-7.73a11.29,11.29,0,0,0-4.05-3.37,9.05,9.05,0,0,0-3.45-.83q-3.45,0-6.45,3.38a30.32,30.32,0,0,0-5.17,8.62A58.94,58.94,0,0,0,257,116a64.19,64.19,0,0,0-1.2,12q0,5.25,1.13,7.65a4,4,0,0,0,4,2.4,7.74,7.74,0,0,0,4.95-1.8,17.5,17.5,0,0,0,4.13-5.1,51.09,51.09,0,0,0,3.52-7.87Q275.14,118.73,276.64,113.17Z"/><path class="cls-1" d="M339.19,78.22q-3.45,0-7-.3t-7-.75q-1.35,5.25-2.7,11.4t-2.55,12q-1.2,5.85-2.1,10.8t-1.35,7.8a72.11,72.11,0,0,0-1,7.28c-.15,2-.23,3.77-.23,5.17a13.54,13.54,0,0,0,.68,5.18c.45.95,1,1.42,1.72,1.42q2.1,0,5.1-4.95,2.1-3.3,4.73-8.17t5.17-10.58a2.26,2.26,0,0,1,.9-1.12,2.08,2.08,0,0,1,1.05-.38,1.25,1.25,0,0,1,1.13.6,1.48,1.48,0,0,1-.08,1.5q-2.4,4.8-4.95,10.2a97.28,97.28,0,0,1-5.25,9.75,35.54,35.54,0,0,1-5.77,7.58,8.37,8.37,0,0,1-5.17,2.17,6.77,6.77,0,0,1-5-1.57,11.8,11.8,0,0,1-3.18-4.8,30.36,30.36,0,0,1-1.7-7,66.7,66.7,0,0,1-.52-8.48,84,84,0,0,1,.67-9.37q.66-5.77,1.7-12.45T309,87.6q1.32-6.82,2.66-12.53-4.89-.75-9.82-1.35a81.62,81.62,0,0,0-9.88-.6,24.76,24.76,0,0,0-8.47,1.2q-3.23,1.2-5.93,5.55c-.4.6-.8.83-1.2.68a.83.83,0,0,1-.6-.83,7.57,7.57,0,0,1,1.35-4.27,12.46,12.46,0,0,1,3.68-3.53,20.55,20.55,0,0,1,5.4-2.4,23.08,23.08,0,0,1,6.52-.9,82.87,82.87,0,0,1,10,.6q4.92.6,10,1.35,1.19-4.35,2.07-7.12c.59-1.85,1.14-2.93,1.64-3.23a3.74,3.74,0,0,1,1.88-.75,17.5,17.5,0,0,1,2.32-.15,21,21,0,0,1,3.45.3,17.87,17.87,0,0,1,3.23.83,9.76,9.76,0,0,1,2.17,1c.5.35.6.67.3,1a12.23,12.23,0,0,0-1.42,3.38q-.82,2.63-1.88,6.82,3.3.45,6.53.75t6.67.3h6.3a43,43,0,0,0,6.23-.45,19.47,19.47,0,0,0,5.7-1.72,14.14,14.14,0,0,0,4.72-3.83c1.1-1.4,2-1.8,2.78-1.2s.52,1.65-.68,3.15a19.35,19.35,0,0,1-5.25,4.43,26.31,26.31,0,0,1-6.37,2.62,39.92,39.92,0,0,1-7,1.2Q342.49,78.22,339.19,78.22Z"/><path class="cls-1" d="M367.09,144.82q-8.25,0-8.25-12.9a61.63,61.63,0,0,1,.83-9.67c.54-3.45,1.17-6.83,1.87-10.13s1.33-6.37,1.88-9.22a39.31,39.31,0,0,0,.82-7q0-3.3-1.95-3.3t-4,2.63a37.86,37.86,0,0,0-3.9,6.45q-1.87,3.83-3.53,8.17t-2.7,7.95q-.9,2.55-2,6.38t-2.48,7.65q-1.35,3.83-2.77,7.2a22,22,0,0,1-2.63,4.87,3.78,3.78,0,0,1-1.8,1.43,6.64,6.64,0,0,1-2.25.37,9.6,9.6,0,0,1-4.72-1.2c-1.45-.8-2-1.45-1.73-2q.9-1,2-7.27t2.4-15.08q1.26-8.85,2.62-19t2.7-18.83q1.35-8.7,2.63-14.77t2.47-6.83a7.24,7.24,0,0,1,4.2-1,16.47,16.47,0,0,1,3.08.3,11.48,11.48,0,0,1,2.7.83A7.37,7.37,0,0,1,354.34,62c.4.35.5.67.3,1q-.9,1-1.87,4.88t-2.1,9.37q-1.12,5.55-2.18,12t-2.1,12.53q-1,6.08-1.87,11.25t-1.28,8q2-6.15,4.28-12.22a75,75,0,0,1,5.1-10.88,33.1,33.1,0,0,1,6-7.8,10.23,10.23,0,0,1,7.12-3,7,7,0,0,1,6.38,3.75q2.17,3.75,2.17,11a64.7,64.7,0,0,1-.75,9.53q-.75,5-1.72,9.67t-1.73,8.55a34.31,34.31,0,0,0-.75,6q0,2.7,1.35,2.7,1.95,0,4.95-4.95,2.1-3.3,4.73-8.17t5.17-10.58a2.26,2.26,0,0,1,.9-1.12,2.08,2.08,0,0,1,1.05-.38,1.25,1.25,0,0,1,1.13.6,1.48,1.48,0,0,1-.08,1.5q-2.4,4.8-5,10.2a97.28,97.28,0,0,1-5.25,9.75,35.79,35.79,0,0,1-5.85,7.65A8,8,0,0,1,367.09,144.82Z"/><path class="cls-1" d="M425.74,114.52a2.26,2.26,0,0,1,.9-1.12,2.08,2.08,0,0,1,1.05-.38,1.25,1.25,0,0,1,1.13.6,1.51,1.51,0,0,1-.08,1.5q-1.35,2.85-2.7,5.78t-2.85,5.77q-9.45,18.15-21.9,18.15a15.3,15.3,0,0,1-12-5.47q-4.8-5.47-4.8-15.83a45.42,45.42,0,0,1,1.8-12.37,42.73,42.73,0,0,1,5.25-11.7,30.47,30.47,0,0,1,8.55-8.78,20.39,20.39,0,0,1,11.7-3.45q5.55,0,8.63,2.55a9,9,0,0,1,3.07,7.35,13,13,0,0,1-2.55,7.95,26.42,26.42,0,0,1-6.37,6.08,36.16,36.16,0,0,1-8.18,4.2,45.63,45.63,0,0,1-7.95,2.17c-.2,1.5-.37,3-.52,4.35a39.4,39.4,0,0,0-.23,4.2q0,12,7.95,12,8.55,0,15.15-12.6,1.35-2.55,2.55-5.32T425.74,114.52Zm-26.7-.3a23.6,23.6,0,0,0,5.63-2.47,30.81,30.81,0,0,0,5.47-4.13,23.09,23.09,0,0,0,4.2-5.25A11.54,11.54,0,0,0,416,96.52q0-4-3.15-4a6.5,6.5,0,0,0-4.35,1.88,20.82,20.82,0,0,0-3.9,4.87,39.45,39.45,0,0,0-3.22,7A64.71,64.71,0,0,0,399,114.22Z"/><path class="cls-1" d="M455.29,92.62q-1.8,0-3.75,2.63a41.45,41.45,0,0,0-3.83,6.45q-1.87,3.83-3.52,8.17t-2.7,7.95q-.9,2.55-2,6.38T437,131.85q-1.35,3.83-2.78,7.2a21.69,21.69,0,0,1-2.62,4.87,3.78,3.78,0,0,1-1.8,1.43,6.64,6.64,0,0,1-2.25.37,9.64,9.64,0,0,1-4.73-1.2c-1.44-.8-2-1.45-1.72-2q.9-1,1.65-5.25t1.5-10q.75-5.77,1.5-12.38t1.57-12.22q.82-5.62,1.8-9.68t2-4.8a7.24,7.24,0,0,1,4.2-1,16.36,16.36,0,0,1,3.07.3,11.48,11.48,0,0,1,2.7.83,7.46,7.46,0,0,1,1.73,1.05c.4.35.5.67.3,1a13.7,13.7,0,0,0-2.1,4.88q-.9,3.38-1.65,7.65T438,112q-.68,4.8-1.42,9,1.95-6.15,4.2-12.22a71,71,0,0,1,5-10.88,28.26,28.26,0,0,1,6.3-7.72,12,12,0,0,1,7.88-2.93q4.65,0,6.37,3.15a14.44,14.44,0,0,1,1.73,7,21.83,21.83,0,0,1-.45,4.43,18.08,18.08,0,0,1-1.2,3.82,6.22,6.22,0,0,1-2.93,3.3,9.5,9.5,0,0,1-3.75,1,9,9,0,0,1-3.22-.38q-1.35-.45-1.35-.75a7.81,7.81,0,0,1,1-1.5q1-1.35,1.58-5.55a17.7,17.7,0,0,0,0-6.52C457.29,93.5,456.49,92.62,455.29,92.62Z"/><path class="cls-1" d="M475.24,81.82c-.6.1-.78-.37-.53-1.42s.65-2.43,1.2-4.13,1.18-3.65,1.88-5.85a39.22,39.22,0,0,0,1.5-6.6,21.59,21.59,0,0,0,0-6.22,8.85,8.85,0,0,0-2.55-5q-.3-.6.9-1a7.85,7.85,0,0,1,2.77-.45,11.34,11.34,0,0,1,3.3.53,4.47,4.47,0,0,1,2.63,2,9.53,9.53,0,0,1,1.27,5.25,23.7,23.7,0,0,1-1,6.08A33,33,0,0,1,484.16,71a40.69,40.69,0,0,1-3.3,5.33,34.53,34.53,0,0,1-3.22,3.82A5.34,5.34,0,0,1,475.24,81.82Z"/><path class="cls-1" d="M478.69,130.87a17.59,17.59,0,0,1,2.7-9.45,16.85,16.85,0,0,1,6.45-6.3.87.87,0,0,1,.15-.6q2.1-4.2,4.2-8.7t4.35-8.55a35.44,35.44,0,0,1-2.63-3.75,6.43,6.43,0,0,1-1-3.3,2.77,2.77,0,0,1,2-3,13.52,13.52,0,0,1,3.83-.6c.2,0,.67,0,1.42.08a17.35,17.35,0,0,1,2.25.3,17.07,17.07,0,0,1,2,.52q.9.3.9.75a2,2,0,0,1-.23.9,2.32,2.32,0,0,0-.22,1,7.61,7.61,0,0,0,2.17,4.8q2.17,2.55,4.8,5.93a47.51,47.51,0,0,1,4.8,7.65,21.35,21.35,0,0,1,2.18,9.82,25.17,25.17,0,0,1-1.95,9.68,27.56,27.56,0,0,1-13.43,14.32,21.62,21.62,0,0,1-9.67,2.25q-7.05,0-11.1-3.9A13.15,13.15,0,0,1,478.69,130.87Zm12.75-16.8c.6,0,1.2,0,1.8.08a4.91,4.91,0,0,1,1.8.52,3.38,3.38,0,0,1,2,2,8.8,8.8,0,0,1,.53,3.07,14.79,14.79,0,0,1-.45,3.6,17,17,0,0,1-1.05,3.08,6.71,6.71,0,0,1-1.2,1.87q-.6.6-.9-.15a4.28,4.28,0,0,0-2-2.1,6.41,6.41,0,0,0-3.22-.9,4.7,4.7,0,0,0-3.3,1.43q-1.5,1.43-1.5,5.32c0,2.9.73,5,2.17,6.23a8.32,8.32,0,0,0,5.63,1.87,11.25,11.25,0,0,0,10.2-5.55q3.45-5.55,3.45-14a30.69,30.69,0,0,0-2.1-12,41.15,41.15,0,0,0-4.65-8.4q-1.65,3-3.53,6.53T491.44,114.07Z"/><path class="cls-1" d="M556.69,68.92a11.56,11.56,0,0,0,1.72,6.23c1.15,1.85,2.57,2.52,4.28,2q.45-.15.45.6a5.88,5.88,0,0,1-.6,2.1,13.52,13.52,0,0,1-1.65,2.7,10.54,10.54,0,0,1-2.7,2.4,6.62,6.62,0,0,1-3.6,1A6.35,6.35,0,0,1,549,82.87a14.74,14.74,0,0,1-2-8.1,27.58,27.58,0,0,1,3.22-12.52,31.7,31.7,0,0,1,10.13-11.33,49.65,49.65,0,0,1,17.4-7.5q10.48-2.55,25.2-1.05c.8.1,1.52.18,2.17.23s1.37.12,2.18.22a37.64,37.64,0,0,1,9.07-13.35,19.5,19.5,0,0,1,13.58-4.95c3.69,0,6.65.85,8.85,2.55a8.76,8.76,0,0,1,3.3,7.35,9.52,9.52,0,0,1-2,6.23,13.7,13.7,0,0,1-5.4,3.9,32.72,32.72,0,0,1-7.72,2.1,74.67,74.67,0,0,1-9,.82,197,197,0,0,0-4.13,24.68q-1.57,14.17-3.52,29.17-1.8,13.5-4.5,26.48a114.14,114.14,0,0,1-7.2,23.1,47.21,47.21,0,0,1-11.48,16.35q-7,6.23-17.32,6.22a28.63,28.63,0,0,1-10.88-1.87,20.84,20.84,0,0,1-7.5-5,20.57,20.57,0,0,1-4.35-7.12,24.07,24.07,0,0,1-1.42-8.18,27,27,0,0,1,1.5-8.85,25.78,25.78,0,0,1,4.35-7.87,21.15,21.15,0,0,1,7-5.63,20.06,20.06,0,0,1,9.23-2.1,19.69,19.69,0,0,1,7.65,1.5,19.22,19.22,0,0,1,6.07,3.9,13.23,13.23,0,0,1,3.45,5.33,8.1,8.1,0,0,1-.07,5.62,3.84,3.84,0,0,1-3.53,2.48,16.33,16.33,0,0,1-5.17-.38,13.53,13.53,0,0,1-4.2-1.65c-1.11-.7-1.3-1.2-.6-1.5a4.25,4.25,0,0,0,2.1-2.1,5.59,5.59,0,0,0,.67-3.45,4.78,4.78,0,0,0-1.87-3.15c-1.11-.9-3-1.35-5.7-1.35a13.37,13.37,0,0,0-6.68,1.65,15.87,15.87,0,0,0-5,4.35,19.5,19.5,0,0,0-3.07,6.15,23.59,23.59,0,0,0-1,6.9,19.77,19.77,0,0,0,1,6.15,15.83,15.83,0,0,0,2.93,5.33,14.24,14.24,0,0,0,4.95,3.75,16.66,16.66,0,0,0,7.2,1.42,15.72,15.72,0,0,0,12.52-5.7,45.14,45.14,0,0,0,8-15,123.8,123.8,0,0,0,5-21.37q1.8-12.08,3.45-25,1.8-14.55,3.9-28.57a132.89,132.89,0,0,1,6-25l-3.23-.3-3.07-.3a60,60,0,0,0-19.13.83A39.16,39.16,0,0,0,567,52.8a24.71,24.71,0,0,0-7.72,8A16.47,16.47,0,0,0,556.69,68.92Zm62.4-25.65q3.6-.15,6.82-.6a21.46,21.46,0,0,0,5.63-1.5,10.59,10.59,0,0,0,3.82-2.7,6,6,0,0,0,1.43-4,5.25,5.25,0,0,0-1.5-4,5.45,5.45,0,0,0-3.9-1.43,8.84,8.84,0,0,0-7.28,3.83A34.3,34.3,0,0,0,619.09,43.27Z"/><path class="cls-1" d="M657,87.07a9.2,9.2,0,0,1,5.47,1.65,13.26,13.26,0,0,1,3.9,4.5,23.13,23.13,0,0,1,2.33,6.6,40.49,40.49,0,0,1,.75,8,45.81,45.81,0,0,1-.53,6.9,67.6,67.6,0,0,1-1.42,6.9,18.36,18.36,0,0,0,5.17-2.55,32.79,32.79,0,0,0,5.18-4.5,2.09,2.09,0,0,1,1.27-.67,1.68,1.68,0,0,1,1.2.3,1.36,1.36,0,0,1,.6,1,1.48,1.48,0,0,1-.52,1.2,39,39,0,0,1-6.3,5.1,25.33,25.33,0,0,1-7.5,3.3,45.2,45.2,0,0,1-3.75,7.95,30,30,0,0,1-5.33,6.6,24.62,24.62,0,0,1-6.82,4.5,20.26,20.26,0,0,1-8.25,1.65,18.41,18.41,0,0,1-13.8-5.55q-5.4-5.55-5.4-14.7a30.7,30.7,0,0,1,1.2-8.32,28.93,28.93,0,0,1,3.45-7.8,19.77,19.77,0,0,1,5.55-5.78,13.21,13.21,0,0,1,7.65-2.25,7.05,7.05,0,0,1,3.45.75,25.52,25.52,0,0,1,1.2-4.87,19.6,19.6,0,0,1,2.4-4.8,13.1,13.1,0,0,1,3.67-3.6A9.23,9.23,0,0,1,657,87.07Zm-20.4,38.25q0,6.9,2.7,10.65a9,9,0,0,0,7.8,3.75,12.29,12.29,0,0,0,9.37-4.12,30.14,30.14,0,0,0,6.08-10.28h-1.35a16.57,16.57,0,0,1-7.5-1.57,15.4,15.4,0,0,1-5.25-4.2,17.57,17.57,0,0,1-3.15-6.15,25.57,25.57,0,0,1-1.05-7.43v-2a11.17,11.17,0,0,0-3.6,3.9,25.15,25.15,0,0,0-2.4,5.55A36.21,36.21,0,0,0,637,119.7,49.33,49.33,0,0,0,636.64,125.32Zm26.85-3.15a41,41,0,0,0,1.72-7.42,53.69,53.69,0,0,0,.53-7.28,31.76,31.76,0,0,0-1.88-11.55q-1.87-4.8-5.77-4.8a4.21,4.21,0,0,0-3.38,1.5,11.42,11.42,0,0,0-2,3.6,17.83,17.83,0,0,0-1,4.35c-.15,1.5-.22,2.75-.22,3.75a28.41,28.41,0,0,0,.6,5.33A23.27,23.27,0,0,0,654,115.5a14.17,14.17,0,0,0,3.67,4.72A8.68,8.68,0,0,0,663.49,122.17Z"/><path class="cls-1" d="M712.24,144.82q-8.26,0-8.25-12.9a61.56,61.56,0,0,1,.82-9.67q.83-5.18,1.88-10.13c.69-3.3,1.32-6.37,1.87-9.22a38.39,38.39,0,0,0,.82-7c0-2.2-.65-3.3-1.94-3.3s-2.63.88-4,2.63a37.86,37.86,0,0,0-3.9,6.45c-1.25,2.55-2.43,5.27-3.52,8.17s-2,5.55-2.71,7.95c-.59,1.7-1.27,3.83-2,6.38s-1.57,5.1-2.48,7.65-1.82,5-2.77,7.2a22.1,22.1,0,0,1-2.62,4.87,3.85,3.85,0,0,1-1.81,1.43,6.64,6.64,0,0,1-2.25.37,9.63,9.63,0,0,1-4.72-1.2c-1.45-.8-2-1.45-1.72-2q.9-1,2-7.27t2.4-15.08q1.27-8.85,2.63-19t2.7-18.83q1.34-8.7,2.62-14.77c.85-4.05,1.67-6.33,2.48-6.83a7.22,7.22,0,0,1,4.2-1,16.45,16.45,0,0,1,3.07.3,11.48,11.48,0,0,1,2.7.83A7.68,7.68,0,0,1,699.49,62c.39.35.49.67.3,1q-.9,1-1.88,4.88t-2.1,9.37q-1.12,5.55-2.18,12t-2.09,12.53q-1.06,6.08-1.88,11.25c-.55,3.45-1,6.12-1.28,8q1.95-6.15,4.28-12.22a76.1,76.1,0,0,1,5.1-10.88,33.37,33.37,0,0,1,6-7.8,10.23,10.23,0,0,1,7.12-3,7,7,0,0,1,6.38,3.75q2.18,3.75,2.18,11a66.1,66.1,0,0,1-.75,9.53c-.51,3.35-1.08,6.57-1.73,9.67s-1.23,6-1.72,8.55a33.36,33.36,0,0,0-.75,6c0,1.8.45,2.7,1.34,2.7q1.95,0,5-4.95,2.09-3.3,4.72-8.17t5.18-10.58a2.19,2.19,0,0,1,.89-1.12,2.08,2.08,0,0,1,1-.38,1.25,1.25,0,0,1,1.13.6,1.48,1.48,0,0,1-.07,1.5q-2.41,4.8-5,10.2a99.35,99.35,0,0,1-5.25,9.75,36.09,36.09,0,0,1-5.86,7.65A8,8,0,0,1,712.24,144.82Z"/><path class="cls-1" d="M765.33,144.82q-8.25,0-8.25-12.9a61.63,61.63,0,0,1,.83-9.67q.83-5.18,1.87-10.13t1.88-9.22a38.39,38.39,0,0,0,.82-7q0-3.3-2-3.3t-4,2.63a37.86,37.86,0,0,0-3.9,6.45q-1.87,3.83-3.53,8.17t-2.7,7.95q-.9,2.55-2,6.38t-2.48,7.65q-1.35,3.83-2.77,7.2a21.64,21.64,0,0,1-2.63,4.87,3.78,3.78,0,0,1-1.8,1.43,6.64,6.64,0,0,1-2.25.37,9.6,9.6,0,0,1-4.72-1.2c-1.45-.8-2-1.45-1.73-2,.6-.7,1.16-2.45,1.65-5.25s1-6.12,1.5-10,1-8,1.5-12.38,1-8.47,1.58-12.22,1.12-7,1.72-9.68,1.3-4.3,2.1-4.8a7.24,7.24,0,0,1,4.2-1,16.47,16.47,0,0,1,3.08.3,11.48,11.48,0,0,1,2.7.83,7.37,7.37,0,0,1,1.72,1.05c.4.35.5.67.3,1a13.7,13.7,0,0,0-2.1,4.88q-.9,3.38-1.65,7.65T742.91,112q-.67,4.8-1.43,9,1.95-6.15,4.28-12.22a76.1,76.1,0,0,1,5.1-10.88,33.37,33.37,0,0,1,6-7.8,10.23,10.23,0,0,1,7.12-3,7,7,0,0,1,6.38,3.75q2.17,3.75,2.17,11a64.7,64.7,0,0,1-.75,9.53q-.75,5-1.72,9.67t-1.73,8.55a34.31,34.31,0,0,0-.75,6q0,2.7,1.35,2.7,2,0,5-4.95,2.1-3.3,4.73-8.17t5.17-10.58a2.26,2.26,0,0,1,.9-1.12,2.08,2.08,0,0,1,1.05-.38,1.25,1.25,0,0,1,1.13.6,1.48,1.48,0,0,1-.08,1.5q-2.4,4.8-4.95,10.2a97.28,97.28,0,0,1-5.25,9.75,35.79,35.79,0,0,1-5.85,7.65A8,8,0,0,1,765.33,144.82Z"/></g></svg>