<svg xmlns="http://www.w3.org/2000/svg" viewBox="0 0 788 176"><defs><style>.cls-1,.cls-2{fill:#393e46;}.cls-2{font-size:150px;font-family:SpringinMay, Spring in May;}</style></defs><title>logo-nav</title><g id="Layer_1" data-name="Layer 1"><path id="_Path_" data-name="&lt;Path&gt;" class="cls-1" d="M60.7,167.48c-2.83,6.86-13.7,8-20.51,7.81-6.64-.12-14.78-2.82-19.27-7.42a10,10,0,0,1-3.07-6.3c4.93,4.83,13.32,3.54,18.1-.58,2.16-1.86,3.9-4.05,5.92-6a16.57,16.57,0,0,1,7.26-4.53,11.44,11.44,0,0,1,11.57,3.73,11.43,11.43,0,0,1,11.56-3.73A16.66,16.66,0,0,1,79.53,155c2,2,3.76,4.17,5.91,6,4.79,4.12,13.18,5.41,18.1.58a10.08,10.08,0,0,1-3.06,6.3c-4.5,4.6-12.63,7.3-19.28,7.42C74.39,175.43,63.53,174.34,60.7,167.48Z"/><g id="_Group_" data-name="&lt;Group&gt;"><path id="_Compound_Path_" data-name="&lt;Compound Path&gt;" class="cls-1" d="M118.16,107.15c-.08-.4-2.79-1.23-3.22-1.4-1.08-.42-2.18-.81-3.29-1.16-1.46-.46-2.93-.86-4.43-1.19a71.86,71.86,0,0,0-15.42-1.55c-4.14,0-16.3.79-21.58,3.57h0c-3.93,1.83-6.84,2.6-9.52,2.6s-5.6-.77-9.53-2.6h0c-5.28-2.78-17.44-3.58-21.57-3.57a72,72,0,0,0-15.43,1.55c-1.49.33-3,.73-4.42,1.19-1.11.35-2.21.74-3.3,1.16-.42.17-3.14,1-3.21,1.4a19.05,19.05,0,0,0-.13,3.58,7.21,7.21,0,0,1,2.09.5,4,4,0,0,1,1.51,1.38c1,1.47.76,3.4,1,5.07.25,1.85.28,3.72.69,5.57A23.4,23.4,0,0,0,12.92,133c2.14,2.59,6,3.58,9.15,4.41a32.06,32.06,0,0,0,12.35.4c4.2-.53,8.49-1.52,11.87-4.07,3-2.23,5-5.49,6.65-8.84a31.33,31.33,0,0,0,1.56-3.81h0c.1-.3.19-.61.28-.91a10.37,10.37,0,0,1,2-3.49,5.25,5.25,0,0,1,7.83,0,10.32,10.32,0,0,1,2,3.5c.09.3.19.59.29.89h0a31.37,31.37,0,0,0,1.57,3.81c1.63,3.35,3.67,6.61,6.64,8.84,3.39,2.55,7.68,3.54,11.87,4.07a32,32,0,0,0,12.35-.4c3.11-.83,7-1.82,9.15-4.41a23.55,23.55,0,0,0,4.54-9.75c.41-1.85.44-3.72.69-5.57.22-1.67,0-3.6,1-5.07a4.08,4.08,0,0,1,1.51-1.38,7.27,7.27,0,0,1,2.1-.5A19.94,19.94,0,0,0,118.16,107.15Zm-111.63,2c-1,0-1.78-.23-1.78-.53s.8-.52,1.78-.52,1.78.23,1.78.52S7.51,109.12,6.53,109.12Zm44.17,8.27c-1.07,6.56-4.28,13.78-11.26,15.67-3.78,1-14.2,1.81-20.61-.95s-6.84-14-7-17.8,2.77-8.89,18.84-8.89a45.92,45.92,0,0,1,9.07.77,20.09,20.09,0,0,1,8.34,3.2,8.54,8.54,0,0,1,2,1.92,5.37,5.37,0,0,1,.87,2.27A12.51,12.51,0,0,1,50.7,117.39Zm58.88-3.08c-.17,3.83-.61,15-7,17.8s-16.83,2-20.6.95c-7-1.89-10.2-9.11-11.26-15.67a11.91,11.91,0,0,1-.19-3.81,5.24,5.24,0,0,1,.87-2.27,8.68,8.68,0,0,1,2-1.92,20.15,20.15,0,0,1,8.34-3.2,46,46,0,0,1,9.08-.77C106.82,105.42,109.76,110.48,109.58,114.31Zm5.29-5.19c-1,0-1.78-.23-1.78-.53s.79-.52,1.78-.52,1.77.23,1.77.52S115.85,109.12,114.87,109.12Z"/></g><g id="_Group_2" data-name="&lt;Group&gt;"><path id="_Path_2" data-name="&lt;Path&gt;" class="cls-1" d="M23.16,57.78H98.23v.08a436.69,436.69,0,0,1,4-45.18,7.05,7.05,0,0,0-4.12-7.44C86.24,0,35.15,0,23.25,5.24a7.06,7.06,0,0,0-4.13,7.44,433.32,433.32,0,0,1,4,45.16v-.06Z"/><path id="_Path_3" data-name="&lt;Path&gt;" class="cls-1" d="M115,56.87c-2.59.78-3.06,4.24-4.65,6.07-3.09,3.58-7.6,5.29-12.32,6.25-3.46.71-7,1-10.23,1.37a232.69,232.69,0,0,1-25.42,1.13H59.06a232.62,232.62,0,0,1-25.41-1.13c-3.2-.35-6.77-.66-10.24-1.37-4.71-1-9.23-2.67-12.32-6.25C9.51,61.11,9,57.65,6.44,56.87c-3.9-1.18-5.09,4.13-5,6.58.23,5,4.42,9.66,8.28,12.46,4.92,3.58,11,5.58,16.82,7,10.64,2.63,21.75,3.28,32.67,3.28h2.93c10.93,0,22-.65,32.67-3.28,5.85-1.45,11.91-3.45,16.83-7,3.85-2.8,8-7.44,8.27-12.46C120,61,118.85,55.69,115,56.87Z"/></g></g><g id="Layer_2" data-name="Layer 2"><text class="cls-2" transform="translate(161.45 144.97)">Father’s John</text></g></svg>