<?xml version="1.0" encoding="utf-8"?>
<!-- Generator: Adobe Illustrator 22.1.0, SVG Export Plug-In . SVG Version: 6.00 Build 0)  -->
<svg version="1.1" id="Layer_1" xmlns="http://www.w3.org/2000/svg" xmlns:xlink="http://www.w3.org/1999/xlink" x="0px" y="0px"
	 viewBox="0 0 36 36" style="enable-background:new 0 0 36 36;" xml:space="preserve">
<style type="text/css">
	.st0{fill:#636C7A;}
</style>
<g>
	<path class="st0" d="M13.1,12c-0.6,0-1.2,0-1.4,0v5.8l0,0c0.3,0,0.6,0,1.2,0c1.8,0,3.4-0.6,3.4-3C16.3,13,15.1,12,13.1,12z"/>
	<path class="st0" d="M26,0H10C4.5,0,0,4.5,0,10v16c0,5.5,4.5,10,10,10h16c5.5,0,10-4.5,10-10V10C36,4.5,31.5,0,26,0z M12.8,20.3
		c-0.6,0-0.8,0-1.2,0V26c0,0.1,0,0.2-0.2,0.2H9.2C9,26.2,9,26.1,9,26V9.9h0c0-0.1,0.2-0.2,0.3-0.2c1-0.1,2.4-0.1,3.9-0.1
		c4.2,0,5.8,2.3,5.8,5.2C19,18.6,16.2,20.3,12.8,20.3z M23.6,26.4c-1.1,0-2.1-0.2-3.1-0.6c-0.1,0-0.1-0.1-0.1-0.2v-2.2
		c0-0.2,0.1-0.2,0.2-0.1c0.9,0.6,1.9,0.9,3,0.9c1.2,0,1.7-0.5,1.7-1.2c0-0.5-0.3-1-1.9-1.8c-2.1-1-3-2.1-3-3.8
		c0-1.9,1.5-3.5,4.1-3.5c0.9,0,1.8,0.1,2.7,0.4c0.1,0.1,0.2,0.2,0.1,0.3v2.1c0,0.1-0.1,0.2-0.2,0.1c-0.8-0.4-1.7-0.7-2.6-0.6l0,0
		c-1.2,0-1.6,0.6-1.6,1.1c0,0.5,0.3,0.9,1.9,1.7c2.4,1.1,3.1,2.2,3.1,3.8C27.9,25.1,26.1,26.4,23.6,26.4z"/>
</g>
</svg>
