<?xml version="1.0" encoding="utf-8"?>
<!-- Generator: Adobe Illustrator 22.1.0, SVG Export Plug-In . SVG Version: 6.00 Build 0)  -->
<svg version="1.1" id="Layer_1" xmlns="http://www.w3.org/2000/svg" xmlns:xlink="http://www.w3.org/1999/xlink" x="0px" y="0px"
	 viewBox="0 0 36 36" style="enable-background:new 0 0 36 36;" xml:space="preserve">
<style type="text/css">
	.st0{fill:#636C7A;}
</style>
<g>
	<path class="st0" d="M22.2,20.2c0,2.8,1.3,3.9,3,3.9c0.4,0,0.7,0,1-0.2c0,0,0-7.4,0-7.4c-0.3-0.1-0.6-0.2-0.9-0.2
		C23.5,16.3,22.2,17.8,22.2,20.2z"/>
	<path class="st0" d="M26,0H10C4.5,0,0,4.5,0,10v16c0,5.5,4.5,10,10,10h16c5.5,0,10-4.5,10-10V10C36,4.5,31.5,0,26,0z M18.6,26.2H16
		c-0.1,0-0.3-0.1-0.3-0.2c-1-2-1.9-4-2.9-6.1h0c-0.9,2-1.9,4.1-2.9,6.1c0,0.1-0.2,0.2-0.3,0.2H7.1C7,26.2,7,26.1,7,26l4.1-7.8
		l-4-7.9c0,0-0.1-0.1,0-0.2c0,0,0.1,0,0.1,0h2.6c0.1,0,0.2,0,0.3,0.2c0.9,2,1.9,4,2.8,6h0c0.9-2,1.8-4,2.8-6
		c0.1-0.1,0.1-0.2,0.3-0.2h2.4c0.1,0,0.2,0.1,0.1,0.2l-4,7.7l4.2,8.1C18.8,26.1,18.7,26.2,18.6,26.2z M28.9,25.5
		c-1.2,0.6-2.5,0.9-3.8,0.9c-3.3,0-5.6-2-5.6-6.1c-0.2-3.2,2.3-6,5.5-6.2c0.2,0,0.3,0,0.5,0c0.3,0,0.5,0,0.8,0v-4
		c0-0.1,0.1-0.1,0.1-0.1h2.4c0.1,0,0.2,0,0.2,0.1v13.8c0,0.5,0,1,0.1,1.5C29,25.5,29,25.5,28.9,25.5z"/>
</g>
</svg>
